<svg xmlns="http://www.w3.org/2000/svg" viewBox="0 0 175.06 145.24"><g id="Ebene_2" data-name="Ebene 2"><g id="Ebene_1-2" data-name="Ebene 1"><path d="M165.8,47h-5.09c-.87-12.59-10.7-22.54-22.66-22.54H88.65V18a9,9,0,1,0-2.25,0v6.47H37c-12,0-21.8,9.95-22.67,22.54H9.25A9.26,9.26,0,0,0,0,56.21V81.28a9.26,9.26,0,0,0,9.25,9.25h5.37l.12.76c.16.79.35,1.57.57,2.33v33.75c0,9.85,9.48,17.87,21.13,17.87H138.62c11.65,0,21.12-8,21.12-17.87V93.45a22.62,22.62,0,0,0,.57-2.33c0-.2.07-.39.1-.59h5.39a9.26,9.26,0,0,0,9.26-9.25V56.21A9.26,9.26,0,0,0,165.8,47ZM9.25,87.53A6.26,6.26,0,0,1,3,81.28V56.21A6.27,6.27,0,0,1,9.25,50h5V86.34c0,.4,0,.8,0,1.19ZM81.52,9a6,6,0,1,1,6,6A6,6,0,0,1,81.52,9ZM17.28,48.77C17.28,37,26.13,27.42,37,27.42h101c10.88,0,19.73,9.58,19.73,21.35V86.15c0,11.88-8.94,21.54-19.91,21.54H113.16a8.09,8.09,0,0,0-2.88.52L65.88,124l3.33-13.76a2.1,2.1,0,0,0-.44-1.77,2,2,0,0,0-1.58-.75H37c-10.88,0-19.73-9.58-19.73-21.35ZM172.05,81.28a6.25,6.25,0,0,1-6.25,6.25h-5.06c0-.46,0-.92,0-1.38V50h5a6.26,6.26,0,0,1,6.25,6.25Z" style="fill:#003056"/><path d="M81.52,9a6,6,0,1,0,6-6A6,6,0,0,0,81.52,9Z" style="fill:#fff"/><path d="M160.74,87.53h5.06a6.25,6.25,0,0,0,6.25-6.25V56.21A6.26,6.26,0,0,0,165.8,50h-5V86.15C160.78,86.61,160.77,87.07,160.74,87.53Z" style="fill:#fff"/><path d="M3,56.21V81.28a6.26,6.26,0,0,0,6.25,6.25H14.3c0-.39,0-.79,0-1.19V50h-5A6.27,6.27,0,0,0,3,56.21Z" style="fill:#fff"/><path d="M157.78,48.77V86.15c0,11.88-8.94,21.54-19.91,21.54H113.16a8.09,8.09,0,0,0-2.88.52L65.88,124l3.33-13.76a2.1,2.1,0,0,0-.44-1.77,2,2,0,0,0-1.58-.75H37c-10.88,0-19.73-9.58-19.73-21.35V48.77C17.28,37,26.13,27.42,37,27.42h101C148.93,27.42,157.78,37,157.78,48.77Z" style="fill:#fff"/><path d="M87.53,100.12c10.25,0,18.62-5,18.87-11.18H68.66C68.9,95.13,77.27,100.12,87.53,100.12Z" style="fill:#003057"/><path d="M87.53,100.12c-10.26,0-18.63-5-18.87-11.18H106.4C106.15,95.13,97.78,100.12,87.53,100.12Z" style="fill:#003056"/><path d="M119,45.1a17.38,17.38,0,1,0,17.38,17.38A17.4,17.4,0,0,0,119,45.1Zm-4.69,19.7a5.53,5.53,0,1,1,5.53-5.53A5.54,5.54,0,0,1,114.29,64.8ZM124.8,69a3,3,0,1,1,3-3A3,3,0,0,1,124.8,69Z" style="fill:#003056"/><path d="M56.07,45.1A17.38,17.38,0,1,0,73.45,62.48,17.4,17.4,0,0,0,56.07,45.1ZM51,64.93a5.53,5.53,0,1,1,5.53-5.53A5.54,5.54,0,0,1,51,64.93ZM61.5,69.16a3,3,0,1,1,3-3A3,3,0,0,1,61.5,69.16Z" style="fill:#003056"/></g></g></svg>